<svg width="512" height="512" viewBox="0 0 512 512" fill="none" xmlns="http://www.w3.org/2000/svg">
  <rect x="24" y="24" width="464" height="464" rx="108" fill="#171B22"/>
  <rect x="24.5" y="24.5" width="463" height="463" rx="107.5" stroke="#44474F"/>
  <path d="M128 392V210C128 187.909 145.909 170 168 170H279V188H176C158.327 188 144 202.327 144 220V392H128Z" fill="#F8EACB"/>
  <path d="M384 392V220C384 202.327 369.673 188 352 188H233V170H344C366.091 170 384 187.909 384 210V392H384Z" fill="#F8EACB"/>
  <rect x="154" y="152" width="30" height="72" rx="15" fill="#F8EACB"/>
  <rect x="328" y="152" width="30" height="72" rx="15" fill="#F8EACB"/>
  <rect x="133" y="171" width="95" height="18" rx="9" fill="#F8EACB"/>
  <rect x="284" y="171" width="95" height="18" rx="9" fill="#F8EACB"/>
  <rect x="154" y="255" width="33" height="33" fill="#F8EACB"/>
  <rect x="198" y="255" width="33" height="33" fill="#F8EACB"/>
  <rect x="154" y="299" width="33" height="33" fill="#F8EACB"/>
  <rect x="198" y="299" width="33" height="33" fill="#F8EACB"/>
  <rect x="242" y="255" width="33" height="33" fill="#FDB342"/>
  <path d="M233 228C278 230 321 240 352 283C325 302 301 322 295 350C289 379 304 399 329 412H127C137 367 162 341 195 322C221 306 250 293 271 278C288 266 284 245 233 228Z" fill="#FF6436"/>
  <path d="M256 86L268.432 145.568L328 158L268.432 170.432L256 230L243.568 170.432L184 158L243.568 145.568L256 86Z" fill="#FDB342"/>
  <path d="M156 122L161.258 147.742L187 153L161.258 158.258L156 184L150.742 158.258L125 153L150.742 147.742L156 122Z" fill="#F8EACB"/>
  <path d="M356 122L361.258 147.742L387 153L361.258 158.258L356 184L350.742 158.258L325 153L350.742 147.742L356 122Z" fill="#F8EACB"/>
</svg>
